<svg height='300px' width='300px'  fill="#000000" xmlns="http://www.w3.org/2000/svg" xmlns:xlink="http://www.w3.org/1999/xlink" viewBox="0 0 32 32" version="1.1" x="0px" y="0px"><title>mdpi/icons / closeIcon</title><g stroke="none" stroke-width="1" fill="none" fill-rule="evenodd"><path d="M25.2626623,6.70710678 L25.2928932,6.73733766 C25.6834175,7.12786196 25.6834175,7.76102693 25.2928932,8.15155123 L17.4444444,16 L17.4444444,16 L25.2928932,23.8484488 C25.6834175,24.2389731 25.6834175,24.872138 25.2928932,25.2626623 L25.2626623,25.2928932 C24.872138,25.6834175 24.2389731,25.6834175 23.8484488,25.2928932 L16,17.4444444 L16,17.4444444 L8.15155123,25.2928932 C7.76102693,25.6834175 7.12786196,25.6834175 6.73733766,25.2928932 L6.70710678,25.2626623 C6.31658249,24.872138 6.31658249,24.2389731 6.70710678,23.8484488 L14.5555556,16 L14.5555556,16 L6.70710678,8.15155123 C6.31658249,7.76102693 6.31658249,7.12786196 6.70710678,6.73733766 L6.73733766,6.70710678 C7.12786196,6.31658249 7.76102693,6.31658249 8.15155123,6.70710678 L16,14.5555556 L16,14.5555556 L23.8484488,6.70710678 C24.2389731,6.31658249 24.872138,6.31658249 25.2626623,6.70710678 Z" fill="#000000" fill-rule="nonzero"></path></g></svg>