<svg height='300px' width='300px'  fill="#00647d" xmlns="http://www.w3.org/2000/svg" viewBox="0 0 36 36" x="0px" y="0px"><title>Монтажная область 93</title><g data-name="Слой 3"><path d="M18,0A18,18,0,1,0,36,18,18.00144,18.00144,0,0,0,18,0ZM14.98,28.46a5.26087,5.26087,0,0,1-7.44-7.44l5.58-5.58a5.01934,5.01934,0,0,1,1.35-.97,5.94738,5.94738,0,0,1,1.36-.48l.26-.03h.02a4.89261,4.89261,0,0,1,.66-.05,2.01137,2.01137,0,0,1,.49.02h.01a2.44,2.44,0,0,1,.3.04,1.08206,1.08206,0,0,1,.36.05,2.694,2.694,0,0,1,.27.07,5.22241,5.22241,0,0,1,2.36,1.35,6.141,6.141,0,0,1,.81,1.05l-1.28,1.28a1.30113,1.30113,0,0,1-.76.37c-.02,0-.05.00995-.07.00995a2.46552,2.46552,0,0,0-.56-.85,2.86811,2.86811,0,0,0-1.03-.64,2.68951,2.68951,0,0,0-1.06-.12,2.2301,2.2301,0,0,0-.45.08,1.304,1.304,0,0,0-.33.12,2.5676,2.5676,0,0,0-.85.56L9.4,22.88a2.63042,2.63042,0,0,0,3.72,3.72l3.65-3.65a4.96129,4.96129,0,0,0,.68.23,6.733,6.733,0,0,0,2.64.17ZM28.46,14.98l-5.11,5.11-.47.47c-.12.12-.26.24-.39.35l-.01.01a4.79332,4.79332,0,0,1-.95.61,5.20048,5.20048,0,0,1-3.73.38,3.44413,3.44413,0,0,1-.68-.24,3.64071,3.64071,0,0,1-.63-.3,5.18148,5.18148,0,0,1-1.86-1.86l1.28-1.28a1.33165,1.33165,0,0,1,.83-.38,2.52618,2.52618,0,0,0,1.41,1.41,1.8974,1.8974,0,0,0,.63.17,2.51073,2.51073,0,0,0,.67.02,2.63335,2.63335,0,0,0,1.57-.75l.89-.9.53-.53.52-.52,3.64-3.63A2.63044,2.63044,0,1,0,22.88,9.4l-3.63,3.64a6.7991,6.7991,0,0,0-3.34-.39l5.11-5.11a5.26087,5.26087,0,1,1,7.44,7.44Z"></path></g></svg>