<?xml version="1.0" standalone="no"?>
<!DOCTYPE svg PUBLIC "-//W3C//DTD SVG 20010904//EN"
 "http://www.w3.org/TR/2001/REC-SVG-20010904/DTD/svg10.dtd">
<svg version="1.0" xmlns="http://www.w3.org/2000/svg"
 width="500.000000pt" height="500.000000pt" viewBox="0 0 500.000000 500.000000"
 preserveAspectRatio="xMidYMid meet">

<g transform="translate(0.000000,500.000000) scale(0.100000,-0.100000)"
fill="#000000" stroke="none">
<path d="M1475 4990 c-42 -17 -64 -59 -114 -220 -138 -437 -255 -548 -716
-685 -127 -38 -167 -65 -181 -121 -10 -38 12 -100 44 -122 15 -10 97 -40 182
-66 319 -98 466 -201 563 -395 26 -51 72 -172 103 -268 31 -96 66 -186 78
-200 27 -31 93 -45 133 -28 46 20 70 56 88 130 27 107 82 259 127 349 111 224
230 306 614 426 138 42 168 62 182 116 21 81 -19 132 -129 163 -517 150 -640
267 -779 745 -17 60 -39 120 -48 134 -27 42 -98 63 -147 42z"/>
<path d="M3295 3918 c-29 -29 -40 -53 -80 -190 -126 -435 -260 -701 -432 -858
-164 -150 -419 -271 -807 -381 -77 -23 -153 -48 -167 -56 -58 -34 -75 -111
-39 -171 24 -40 26 -40 233 -102 599 -178 839 -345 1017 -705 71 -144 110
-250 185 -495 31 -102 62 -194 70 -206 34 -52 115 -64 173 -26 32 21 36 30 96
234 225 761 439 974 1206 1199 96 29 185 59 198 67 49 32 64 98 37 156 -20 42
-51 59 -165 90 -240 65 -483 156 -623 233 -320 177 -477 409 -637 939 -28 93
-58 188 -66 211 -34 95 -131 124 -199 61z"/>
<path d="M1062 2230 c-39 -24 -46 -40 -111 -245 -135 -422 -265 -552 -686
-686 -204 -64 -221 -72 -246 -111 -46 -74 -2 -163 93 -188 111 -29 321 -105
403 -146 224 -111 329 -253 437 -594 64 -200 71 -216 110 -240 42 -25 84 -25
126 0 38 24 48 44 101 216 140 453 265 580 706 719 195 61 211 69 235 107 25
42 25 84 0 125 -24 41 -39 48 -163 83 -56 16 -143 44 -193 64 -337 128 -455
263 -579 661 -25 83 -53 165 -61 183 -16 38 -67 72 -109 72 -16 0 -45 -9 -63
-20z"/>
</g>
</svg>
