<?xml version="1.0" standalone="no"?>
<!DOCTYPE svg PUBLIC "-//W3C//DTD SVG 20010904//EN"
 "http://www.w3.org/TR/2001/REC-SVG-20010904/DTD/svg10.dtd">
<svg version="1.0" xmlns="http://www.w3.org/2000/svg"
 width="516.000000pt" height="516.000000pt" viewBox="0 0 516.000000 516.000000"
 preserveAspectRatio="xMidYMid meet">

<g transform="translate(0.000000,516.000000) scale(0.100000,-0.100000)"
fill="#000000" stroke="none">
<path d="M2434 5135 c-143 -39 -231 -91 -328 -196 -146 -157 -201 -380 -146
-593 30 -117 73 -189 170 -287 67 -68 101 -94 163 -123 l77 -37 0 -965 c0
-530 -3 -964 -7 -964 -5 0 -111 82 -238 181 -126 100 -357 280 -512 401 l-283
220 0 182 1 181 77 38 c250 121 393 412 338 687 -49 247 -234 443 -476 505
-92 24 -236 22 -325 -6 -159 -48 -277 -134 -364 -265 -71 -106 -103 -210 -104
-339 -1 -120 13 -184 63 -290 64 -133 153 -224 287 -293 l73 -37 0 -245 c0
-148 5 -261 11 -285 7 -26 29 -57 63 -90 28 -28 354 -286 724 -574 l672 -524
0 -79 0 -79 -45 -19 c-125 -54 -260 -182 -319 -302 -48 -99 -66 -175 -66 -283
0 -188 57 -323 189 -455 65 -64 104 -94 161 -122 358 -174 767 -2 901 379 30
85 36 230 15 327 -41 184 -167 348 -333 434 l-83 43 0 78 0 78 695 543 c383
298 709 558 725 578 44 53 50 99 50 359 l0 238 78 40 c96 49 222 171 268 260
135 259 91 557 -112 759 -165 164 -400 227 -621 166 -271 -74 -472 -335 -473
-613 -1 -247 148 -481 372 -585 l58 -27 0 -181 0 -181 -515 -401 c-283 -221
-517 -402 -520 -402 -3 0 -5 434 -5 965 l0 964 78 38 c108 52 234 177 285 283
181 379 -20 808 -429 915 -71 18 -221 19 -290 0z"/>
</g>
</svg>
